<svg xmlns="http://www.w3.org/2000/svg" width="45" height="42" viewBox="0 0 45 42" fill="none">
  <g filter="url(#filter0_d_13_30)">
    <path d="M34.7525 0.212097H9.52985C6.54483 0.212097 4.125 2.42479 4.125 5.15428V28.2178C4.125 30.9473 6.54483 33.16 9.52985 33.16H34.7525C37.7375 33.16 40.1573 30.9473 40.1573 28.2178V5.15428C40.1573 2.42479 37.7375 0.212097 34.7525 0.212097Z" fill="#1877F2"/>
    <path d="M29.1506 21.448L29.9528 16.686H24.9562V13.5972C24.9562 12.2973 25.6529 11.0231 27.8908 11.0231H30.164V6.96899C30.164 6.96899 28.102 6.64723 26.1314 6.64723C22.0145 6.64723 19.3261 8.92527 19.3261 13.0566V16.686H14.7517V21.448H19.3261V33.16H24.9562V21.448H29.1506Z" fill="white"/>
  </g>
  <defs>
    <filter id="filter0_d_13_30" x="0.125" y="0.212097" width="44.0323" height="40.9479" filterUnits="userSpaceOnUse" color-interpolation-filters="sRGB">
      <feFlood flood-opacity="0" result="BackgroundImageFix"/>
      <feColorMatrix in="SourceAlpha" type="matrix" values="0 0 0 0 0 0 0 0 0 0 0 0 0 0 0 0 0 0 127 0" result="hardAlpha"/>
      <feOffset dy="4"/>
      <feGaussianBlur stdDeviation="2"/>
      <feComposite in2="hardAlpha" operator="out"/>
      <feColorMatrix type="matrix" values="0 0 0 0 0 0 0 0 0 0 0 0 0 0 0 0 0 0 0.25 0"/>
      <feBlend mode="normal" in2="BackgroundImageFix" result="effect1_dropShadow_13_30"/>
      <feBlend mode="normal" in="SourceGraphic" in2="effect1_dropShadow_13_30" result="shape"/>
    </filter>
  </defs>
</svg>