<svg xmlns="http://www.w3.org/2000/svg" width="45" height="42" viewBox="0 0 45 42" fill="none">
  <g filter="url(#filter0_d_13_25)">
    <path d="M40.4694 13.4596H39.0182V13.3913H22.8036V19.9808H32.9855C31.5 23.8168 27.5085 26.5704 22.8036 26.5704C16.834 26.5704 11.9939 22.1447 11.9939 16.686C11.9939 11.2274 16.834 6.80168 22.8036 6.80168C25.5592 6.80168 28.0661 7.75222 29.975 9.30489L35.0708 4.64524C31.8531 1.90315 27.5491 0.212097 22.8036 0.212097C12.8542 0.212097 4.78748 7.58831 4.78748 16.686C4.78748 25.7838 12.8542 33.16 22.8036 33.16C32.7531 33.16 40.8198 25.7838 40.8198 16.686C40.8198 15.5815 40.6955 14.5032 40.4694 13.4596Z" fill="#FFC107"/>
    <path d="M6.86475 9.01825L12.784 12.9876C14.3856 9.36173 18.2645 6.80168 22.8036 6.80168C25.5592 6.80168 28.0662 7.75222 29.975 9.30489L35.0708 4.64524C31.8532 1.90315 27.5491 0.212097 22.8036 0.212097C15.8836 0.212097 9.88245 3.78447 6.86475 9.01825Z" fill="#FF3D00"/>
    <path d="M22.8037 33.16C27.4572 33.16 31.6856 31.5316 34.8826 28.8834L29.3066 24.5688C27.4978 25.8217 25.2493 26.5704 22.8037 26.5704C18.1177 26.5704 14.1388 23.8382 12.6398 20.0253L6.76477 24.1644C9.74644 29.4995 15.8017 33.16 22.8037 33.16Z" fill="#4CAF50"/>
    <path d="M40.4694 13.4596H39.0182V13.3913H22.8036V19.9808H32.9855C32.272 21.8235 30.9758 23.4124 29.3039 24.5697C29.3048 24.5688 29.3057 24.5688 29.3066 24.568L34.8826 28.8825C34.488 29.2104 40.8198 24.923 40.8198 16.6861C40.8198 15.5815 40.6955 14.5033 40.4694 13.4596Z" fill="#1976D2"/>
  </g>
  <defs>
    <filter id="filter0_d_13_25" x="0.787476" y="0.212097" width="44.0323" height="40.9479" filterUnits="userSpaceOnUse" color-interpolation-filters="sRGB">
      <feFlood flood-opacity="0" result="BackgroundImageFix"/>
      <feColorMatrix in="SourceAlpha" type="matrix" values="0 0 0 0 0 0 0 0 0 0 0 0 0 0 0 0 0 0 127 0" result="hardAlpha"/>
      <feOffset dy="4"/>
      <feGaussianBlur stdDeviation="2"/>
      <feComposite in2="hardAlpha" operator="out"/>
      <feColorMatrix type="matrix" values="0 0 0 0 0 0 0 0 0 0 0 0 0 0 0 0 0 0 0.25 0"/>
      <feBlend mode="normal" in2="BackgroundImageFix" result="effect1_dropShadow_13_25"/>
      <feBlend mode="normal" in="SourceGraphic" in2="effect1_dropShadow_13_25" result="shape"/>
    </filter>
  </defs>
</svg>