<svg xmlns="http://www.w3.org/2000/svg" width="45" height="42" viewBox="0 0 45 42" fill="none">
  <g filter="url(#filter0_d_13_34)">
    <path d="M16.2497 16.686C16.2497 13.6534 18.9377 11.1943 22.2544 11.1943C25.5711 11.1943 28.2605 13.6534 28.2605 16.686C28.2605 19.7187 25.5711 22.1778 22.2544 22.1778C18.9377 22.1778 16.2497 19.7187 16.2497 16.686ZM13.0029 16.686C13.0029 21.3581 17.1448 25.1452 22.2544 25.1452C27.364 25.1452 31.5058 21.3581 31.5058 16.686C31.5058 12.014 27.364 8.22687 22.2544 8.22687C17.1448 8.22687 13.0029 12.014 13.0029 16.686ZM29.71 7.89146C29.7096 8.98326 30.6771 9.86869 31.8712 9.86913C33.0652 9.86956 34.0336 8.98484 34.0341 7.89304C34.0346 6.80125 33.067 5.91581 31.8729 5.91538C30.6794 5.91589 29.7111 6.80018 29.71 7.89146ZM14.9755 30.0954C13.219 30.0223 12.2642 29.7548 11.6297 29.5287C10.7886 29.2293 10.1884 28.8727 9.55737 28.2965C8.92634 27.7203 8.53574 27.172 8.2097 26.4029C7.96237 25.823 7.66977 24.9498 7.58992 23.3436C7.50258 21.6071 7.48514 21.0855 7.48514 16.6862C7.48514 12.2868 7.50402 11.7667 7.58992 10.0287C7.66992 8.42258 7.96467 7.55104 8.2097 6.96945C8.53718 6.20031 8.92721 5.65153 9.55737 5.07455C10.1875 4.49756 10.7871 4.14041 11.6297 3.8423C12.2639 3.61614 13.219 3.34861 14.9755 3.27559C16.8747 3.19573 17.4452 3.17978 22.2544 3.17978C27.0636 3.17978 27.6346 3.19704 29.5353 3.27559C31.2919 3.34874 32.2451 3.61825 32.8811 3.8423C33.7223 4.14041 34.3225 4.49835 34.9535 5.07455C35.5845 5.65074 35.9737 6.20031 36.3012 6.96945C36.5485 7.54933 36.8411 8.42258 36.921 10.0287C37.0083 11.7667 37.0257 12.2868 37.0257 16.6862C37.0257 21.0855 37.0083 21.6057 36.921 23.3436C36.841 24.9498 36.5469 25.8228 36.3012 26.4029C35.9737 27.172 35.5837 27.7208 34.9535 28.2965C34.3234 28.8722 33.7223 29.2293 32.8811 29.5287C32.247 29.7549 31.2919 30.0224 29.5353 30.0954C27.6362 30.1753 27.0657 30.1913 22.2544 30.1913C17.443 30.1913 16.8741 30.1753 14.9755 30.0954ZM14.8264 0.311863C12.9084 0.391729 11.5977 0.669809 10.4532 1.07705C9.2678 1.49759 8.26433 2.06179 7.26158 2.97722C6.25884 3.89264 5.64338 4.81162 5.18345 5.89548C4.73807 6.94269 4.43394 8.14042 4.3466 9.89417C4.25781 11.6507 4.23749 12.2122 4.23749 16.686C4.23749 21.1598 4.25781 21.7214 4.3466 23.4779C4.43394 25.2318 4.73807 26.4294 5.18345 27.4766C5.64338 28.5598 6.25898 29.4798 7.26158 30.3949C8.26419 31.3099 9.2678 31.8733 10.4532 32.295C11.5999 32.7023 12.9084 32.9804 14.8264 33.0602C16.7484 33.1401 17.3616 33.16 22.2544 33.16C27.1472 33.16 27.7613 33.1414 29.6824 33.0602C31.6005 32.9804 32.9103 32.7023 34.0556 32.295C35.2402 31.8733 36.2444 31.3103 37.2471 30.3949C38.2499 29.4795 38.864 28.5598 39.3253 27.4766C39.7707 26.4294 40.0762 25.2317 40.1621 23.4779C40.2495 21.7201 40.2698 21.1598 40.2698 16.686C40.2698 12.2122 40.2495 11.6507 40.1621 9.89417C40.0748 8.14028 39.7707 6.94204 39.3253 5.89548C38.864 4.81228 38.2483 3.89409 37.2471 2.97722C36.246 2.06034 35.2402 1.49759 34.057 1.07705C32.9103 0.669809 31.6004 0.390411 29.6838 0.311863C27.7628 0.231998 27.1486 0.212097 22.2558 0.212097C17.363 0.212097 16.7484 0.23068 14.8264 0.311863Z" fill="url(#paint0_radial_13_34)"/>
  </g>
  <defs>
    <filter id="filter0_d_13_34" x="0.237488" y="0.212097" width="44.0323" height="40.9479" filterUnits="userSpaceOnUse" color-interpolation-filters="sRGB">
      <feFlood flood-opacity="0" result="BackgroundImageFix"/>
      <feColorMatrix in="SourceAlpha" type="matrix" values="0 0 0 0 0 0 0 0 0 0 0 0 0 0 0 0 0 0 127 0" result="hardAlpha"/>
      <feOffset dy="4"/>
      <feGaussianBlur stdDeviation="2"/>
      <feComposite in2="hardAlpha" operator="out"/>
      <feColorMatrix type="matrix" values="0 0 0 0 0 0 0 0 0 0 0 0 0 0 0 0 0 0 0.25 0"/>
      <feBlend mode="normal" in2="BackgroundImageFix" result="effect1_dropShadow_13_34"/>
      <feBlend mode="normal" in="SourceGraphic" in2="effect1_dropShadow_13_34" result="shape"/>
    </filter>
    <radialGradient id="paint0_radial_13_34" cx="0" cy="0" r="1" gradientUnits="userSpaceOnUse" gradientTransform="translate(80.8343 529.869) scale(752.625 688.199)">
      <stop offset="0.09" stop-color="#FA8F21"/>
      <stop offset="0.78" stop-color="#D82D7E"/>
    </radialGradient>
  </defs>
</svg>